{
 "accessors": [
  {
   "componentType": 5126,
   "type": "VEC3",
   "count": 282,
   "max": [
    4.9204301834106445,
    15.041979789733887,
    0.5898810029029846
   ],
   "min": [
    -4.9204301834106445,
    13.616729736328125,
    -0.28557899594306946
   ],
   "bufferView": 12
  },
  {
   "componentType": 5126,
   "type": "VEC3",
   "count": 282,
   "bufferView": 13
  },
  {
   "componentType": 5126,
   "type": "VEC2",
   "count": 282,
   "bufferView": 14
  },
  {
   "componentType": 5123,
   "type": "SCALAR",
   "count": 282,
   "bufferView": 15
  },
  {
   "componentType": 5126,
   "type": "VEC3",
   "count": 3,
   "max": [
    0.08866000175476074,
    15.678910255432129,
    1.1190110445022583
   ],
   "min": [
    -0.08866000175476074,
    15.52383041381836,
    1.0350810289382935
   ],
   "bufferView": 16
  },
  {
   "componentType": 5126,
   "type": "VEC3",
   "count": 3,
   "bufferView": 17
  },
  {
   "componentType": 5126,
   "type": "VEC2",
   "count": 3,
   "bufferView": 18
  },
  {
   "componentType": 5121,
   "type": "SCALAR",
   "count": 3,
   "bufferView": 19
  },
  {
   "componentType": 5126,
   "type": "VEC3",
   "count": 456,
   "max": [
    2.9477601051330566,
    2.91198992729187,
    1.8770099878311157
   ],
   "min": [
    -2.9477601051330566,
    0,
    -1.3275200128555298
   ],
   "bufferView": 20
  },
  {
   "componentType": 5126,
   "type": "VEC3",
   "count": 456,
   "bufferView": 21
  },
  {
   "componentType": 5126,
   "type": "VEC2",
   "count": 456,
   "bufferView": 22
  },
  {
   "componentType": 5123,
   "type": "SCALAR",
   "count": 456,
   "bufferView": 23
  },
  {
   "componentType": 5126,
   "type": "VEC3",
   "count": 450,
   "max": [
    3.9573800563812256,
    12.201769828796387,
    2.18264102935791
   ],
   "min": [
    -3.6026699542999268,
    3.549060106277466,
    -1.5985289812088013
   ],
   "bufferView": 24
  },
  {
   "componentType": 5126,
   "type": "VEC3",
   "count": 450,
   "bufferView": 25
  },
  {
   "componentType": 5126,
   "type": "VEC2",
   "count": 450,
   "bufferView": 26
  },
  {
   "componentType": 5123,
   "type": "SCALAR",
   "count": 450,
   "bufferView": 27
  },
  {
   "componentType": 5126,
   "type": "VEC3",
   "count": 456,
   "max": [
    1.7273999452590942,
    15.363750457763672,
    1.9452309608459473
   ],
   "min": [
    -2.298840045928955,
    11.656660079956055,
    -1.427409052848816
   ],
   "bufferView": 28
  },
  {
   "componentType": 5126,
   "type": "VEC3",
   "count": 456,
   "bufferView": 29
  },
  {
   "componentType": 5126,
   "type": "VEC2",
   "count": 456,
   "bufferView": 30
  },
  {
   "componentType": 5123,
   "type": "SCALAR",
   "count": 456,
   "bufferView": 31
  },
  {
   "componentType": 5126,
   "type": "VEC3",
   "count": 978,
   "max": [
    1.3017200231552124,
    17.100439071655273,
    1.4450910091400146
   ],
   "min": [
    -1.3017200231552124,
    15.101099967956543,
    0.16870099306106567
   ],
   "bufferView": 32
  },
  {
   "componentType": 5126,
   "type": "VEC3",
   "count": 978,
   "bufferView": 33
  },
  {
   "componentType": 5126,
   "type": "VEC2",
   "count": 978,
   "bufferView": 34
  },
  {
   "componentType": 5123,
   "type": "SCALAR",
   "count": 978,
   "bufferView": 35
  },
  {
   "componentType": 5126,
   "type": "VEC3",
   "count": 912,
   "max": [
    9.347729682922363,
    15.231329917907715,
    0.558821976184845
   ],
   "min": [
    -9.347729682922363,
    14.020520210266113,
    -0.9279209971427917
   ],
   "bufferView": 36
  },
  {
   "componentType": 5126,
   "type": "VEC3",
   "count": 912,
   "bufferView": 37
  },
  {
   "componentType": 5126,
   "type": "VEC2",
   "count": 912,
   "bufferView": 38
  },
  {
   "componentType": 5123,
   "type": "SCALAR",
   "count": 912,
   "bufferView": 39
  },
  {
   "componentType": 5126,
   "type": "VEC3",
   "count": 915,
   "max": [
    7.4954400062561035,
    15.558560371398926,
    2.3372199535369873
   ],
   "min": [
    -7.4954400062561035,
    8.623519897460938,
    -1.5780789852142334
   ],
   "bufferView": 40
  },
  {
   "componentType": 5126,
   "type": "VEC3",
   "count": 915,
   "bufferView": 41
  },
  {
   "componentType": 5126,
   "type": "VEC2",
   "count": 915,
   "bufferView": 42
  },
  {
   "componentType": 5123,
   "type": "SCALAR",
   "count": 915,
   "bufferView": 43
  },
  {
   "componentType": 5126,
   "type": "VEC3",
   "count": 1269,
   "max": [
    2.5590500831604004,
    19.296300888061523,
    2.8923609256744385
   ],
   "min": [
    -3.3350000381469727,
    15.853859901428223,
    -2.787698984146118
   ],
   "bufferView": 44
  },
  {
   "componentType": 5126,
   "type": "VEC3",
   "count": 1269,
   "bufferView": 45
  },
  {
   "componentType": 5126,
   "type": "VEC2",
   "count": 1269,
   "bufferView": 46
  },
  {
   "componentType": 5123,
   "type": "SCALAR",
   "count": 1269,
   "bufferView": 47
  },
  {
   "componentType": 5126,
   "type": "VEC3",
   "count": 1662,
   "max": [
    3.7309000492095947,
    16.51119041442871,
    1.724181056022644
   ],
   "min": [
    -3.7309000492095947,
    11.96597957611084,
    -1.3633489608764648
   ],
   "bufferView": 48
  },
  {
   "componentType": 5126,
   "type": "VEC3",
   "count": 1662,
   "bufferView": 49
  },
  {
   "componentType": 5126,
   "type": "VEC2",
   "count": 1662,
   "bufferView": 50
  },
  {
   "componentType": 5123,
   "type": "SCALAR",
   "count": 1662,
   "bufferView": 51
  },
  {
   "componentType": 5126,
   "type": "VEC3",
   "count": 1848,
   "max": [
    3.470050096511841,
    11.706660270690918,
    1.8811609745025635
   ],
   "min": [
    -3.1953999996185303,
    2.7455899715423584,
    -1.93743896484375
   ],
   "bufferView": 52
  },
  {
   "componentType": 5126,
   "type": "VEC3",
   "count": 1848,
   "bufferView": 53
  },
  {
   "componentType": 5126,
   "type": "VEC2",
   "count": 1848,
   "bufferView": 54
  },
  {
   "componentType": 5123,
   "type": "SCALAR",
   "count": 1848,
   "bufferView": 55
  },
  {
   "componentType": 5126,
   "type": "VEC3",
   "count": 1374,
   "max": [
    6.600599765777588,
    15.519920349121094,
    1.7103209495544434
   ],
   "min": [
    -6.600599765777588,
    2.787899971008301,
    -1.3562300205230713
   ],
   "bufferView": 56
  },
  {
   "componentType": 5126,
   "type": "VEC3",
   "count": 1374,
   "bufferView": 57
  },
  {
   "componentType": 5126,
   "type": "VEC2",
   "count": 1374,
   "bufferView": 58
  },
  {
   "componentType": 5123,
   "type": "SCALAR",
   "count": 1374,
   "bufferView": 59
  }
 ],
 "asset": {
  "version": "2.0",
  "generator": "clara.io"
 },
 "bufferViews": [
  {
   "buffer": 0,
   "byteOffset": 0,
   "byteLength": 6144
  },
  {
   "buffer": 0,
   "byteOffset": 6144,
   "byteLength": 3365
  },
  {
   "buffer": 0,
   "byteOffset": 14336,
   "byteLength": 757
  },
  {
   "buffer": 0,
   "byteOffset": 22528,
   "byteLength": 3691
  },
  {
   "buffer": 0,
   "byteOffset": 30720,
   "byteLength": 4080
  },
  {
   "buffer": 0,
   "byteOffset": 38912,
   "byteLength": 6268
  },
  {
   "buffer": 0,
   "byteOffset": 45180,
   "byteLength": 583
  },
  {
   "buffer": 0,
   "byteOffset": 53372,
   "byteLength": 13293
  },
  {
   "buffer": 0,
   "byteOffset": 66668,
   "byteLength": 15869
  },
  {
   "buffer": 0,
   "byteOffset": 82540,
   "byteLength": 16112
  },
  {
   "buffer": 0,
   "byteOffset": 98652,
   "byteLength": 6887
  },
  {
   "buffer": 0,
   "byteOffset": 105540,
   "byteLength": 4926
  },
  {
   "buffer": 0,
   "byteOffset": 110468,
   "byteLength": 3384,
   "target": 34962,
   "byteStride": 12
  },
  {
   "buffer": 0,
   "byteOffset": 113852,
   "byteLength": 3384,
   "target": 34962,
   "byteStride": 12
  },
  {
   "buffer": 0,
   "byteOffset": 117236,
   "byteLength": 2256,
   "target": 34962,
   "byteStride": 8
  },
  {
   "buffer": 0,
   "byteOffset": 119492,
   "byteLength": 564,
   "target": 34963
  },
  {
   "buffer": 0,
   "byteOffset": 120056,
   "byteLength": 36,
   "target": 34962,
   "byteStride": 12
  },
  {
   "buffer": 0,
   "byteOffset": 120092,
   "byteLength": 36,
   "target": 34962,
   "byteStride": 12
  },
  {
   "buffer": 0,
   "byteOffset": 120128,
   "byteLength": 24,
   "target": 34962,
   "byteStride": 8
  },
  {
   "buffer": 0,
   "byteOffset": 120152,
   "byteLength": 3,
   "target": 34963
  },
  {
   "buffer": 0,
   "byteOffset": 120156,
   "byteLength": 5472,
   "target": 34962,
   "byteStride": 12
  },
  {
   "buffer": 0,
   "byteOffset": 125628,
   "byteLength": 5472,
   "target": 34962,
   "byteStride": 12
  },
  {
   "buffer": 0,
   "byteOffset": 131100,
   "byteLength": 3648,
   "target": 34962,
   "byteStride": 8
  },
  {
   "buffer": 0,
   "byteOffset": 134748,
   "byteLength": 912,
   "target": 34963
  },
  {
   "buffer": 0,
   "byteOffset": 135660,
   "byteLength": 5400,
   "target": 34962,
   "byteStride": 12
  },
  {
   "buffer": 0,
   "byteOffset": 141060,
   "byteLength": 5400,
   "target": 34962,
   "byteStride": 12
  },
  {
   "buffer": 0,
   "byteOffset": 146460,
   "byteLength": 3600,
   "target": 34962,
   "byteStride": 8
  },
  {
   "buffer": 0,
   "byteOffset": 150060,
   "byteLength": 900,
   "target": 34963
  },
  {
   "buffer": 0,
   "byteOffset": 150960,
   "byteLength": 5472,
   "target": 34962,
   "byteStride": 12
  },
  {
   "buffer": 0,
   "byteOffset": 156432,
   "byteLength": 5472,
   "target": 34962,
   "byteStride": 12
  },
  {
   "buffer": 0,
   "byteOffset": 161904,
   "byteLength": 3648,
   "target": 34962,
   "byteStride": 8
  },
  {
   "buffer": 0,
   "byteOffset": 165552,
   "byteLength": 912,
   "target": 34963
  },
  {
   "buffer": 0,
   "byteOffset": 166464,
   "byteLength": 11736,
   "target": 34962,
   "byteStride": 12
  },
  {
   "buffer": 0,
   "byteOffset": 178200,
   "byteLength": 11736,
   "target": 34962,
   "byteStride": 12
  },
  {
   "buffer": 0,
   "byteOffset": 189936,
   "byteLength": 7824,
   "target": 34962,
   "byteStride": 8
  },
  {
   "buffer": 0,
   "byteOffset": 197760,
   "byteLength": 1956,
   "target": 34963
  },
  {
   "buffer": 0,
   "byteOffset": 199716,
   "byteLength": 10944,
   "target": 34962,
   "byteStride": 12
  },
  {
   "buffer": 0,
   "byteOffset": 210660,
   "byteLength": 10944,
   "target": 34962,
   "byteStride": 12
  },
  {
   "buffer": 0,
   "byteOffset": 221604,
   "byteLength": 7296,
   "target": 34962,
   "byteStride": 8
  },
  {
   "buffer": 0,
   "byteOffset": 228900,
   "byteLength": 1824,
   "target": 34963
  },
  {
   "buffer": 0,
   "byteOffset": 230724,
   "byteLength": 10980,
   "target": 34962,
   "byteStride": 12
  },
  {
   "buffer": 0,
   "byteOffset": 241704,
   "byteLength": 10980,
   "target": 34962,
   "byteStride": 12
  },
  {
   "buffer": 0,
   "byteOffset": 252684,
   "byteLength": 7320,
   "target": 34962,
   "byteStride": 8
  },
  {
   "buffer": 0,
   "byteOffset": 260004,
   "byteLength": 1830,
   "target": 34963
  },
  {
   "buffer": 0,
   "byteOffset": 261836,
   "byteLength": 15228,
   "target": 34962,
   "byteStride": 12
  },
  {
   "buffer": 0,
   "byteOffset": 277064,
   "byteLength": 15228,
   "target": 34962,
   "byteStride": 12
  },
  {
   "buffer": 0,
   "byteOffset": 292292,
   "byteLength": 10152,
   "target": 34962,
   "byteStride": 8
  },
  {
   "buffer": 0,
   "byteOffset": 302444,
   "byteLength": 2538,
   "target": 34963
  },
  {
   "buffer": 0,
   "byteOffset": 304984,
   "byteLength": 19944,
   "target": 34962,
   "byteStride": 12
  },
  {
   "buffer": 0,
   "byteOffset": 324928,
   "byteLength": 19944,
   "target": 34962,
   "byteStride": 12
  },
  {
   "buffer": 0,
   "byteOffset": 344872,
   "byteLength": 13296,
   "target": 34962,
   "byteStride": 8
  },
  {
   "buffer": 0,
   "byteOffset": 358168,
   "byteLength": 3324,
   "target": 34963
  },
  {
   "buffer": 0,
   "byteOffset": 361492,
   "byteLength": 22176,
   "target": 34962,
   "byteStride": 12
  },
  {
   "buffer": 0,
   "byteOffset": 383668,
   "byteLength": 22176,
   "target": 34962,
   "byteStride": 12
  },
  {
   "buffer": 0,
   "byteOffset": 405844,
   "byteLength": 14784,
   "target": 34962,
   "byteStride": 8
  },
  {
   "buffer": 0,
   "byteOffset": 420628,
   "byteLength": 3696,
   "target": 34963
  },
  {
   "buffer": 0,
   "byteOffset": 424324,
   "byteLength": 16488,
   "target": 34962,
   "byteStride": 12
  },
  {
   "buffer": 0,
   "byteOffset": 440812,
   "byteLength": 16488,
   "target": 34962,
   "byteStride": 12
  },
  {
   "buffer": 0,
   "byteOffset": 457300,
   "byteLength": 10992,
   "target": 34962,
   "byteStride": 8
  },
  {
   "buffer": 0,
   "byteOffset": 468292,
   "byteLength": 2748,
   "target": 34963
  }
 ],
 "buffers": [
  {
   "byteLength": 471040,
   "uri": "data:application/octet-stream;base64,"
  }
 ],
 "images": [
  {
   "name": "Dolphin.exe_Tue_Mar_22_01-00-09_2011_19.png",
   "bufferView": 0,
   "mimeType": "image/png"
  },
  {
   "name": "Dolphin.exe_Tue_Mar_22_01-00-09_2011_28.png",
   "bufferView": 1,
   "mimeType": "image/png"
  },
  {
   "name": "Dolphin.exe_Tue_Mar_22_01-00-09_2011_29.png",
   "bufferView": 2,
   "mimeType": "image/png"
  },
  {
   "name": "Dolphin.exe_Tue_Mar_22_01-00-09_2011_21.png",
   "bufferView": 3,
   "mimeType": "image/png"
  },
  {
   "name": "Dolphin.exe_Tue_Mar_22_01-00-09_2011_26.png",
   "bufferView": 4,
   "mimeType": "image/png"
  },
  {
   "name": "Dolphin.exe_Tue_Mar_22_01-00-09_2011_27.png",
   "bufferView": 5,
   "mimeType": "image/png"
  },
  {
   "name": "Dolphin.exe_Tue_Mar_22_01-00-09_2011_30.png",
   "bufferView": 6,
   "mimeType": "image/png"
  },
  {
   "name": "Dolphin.exe_Tue_Mar_22_01-00-09_2011_20.png",
   "bufferView": 7,
   "mimeType": "image/png"
  },
  {
   "name": "Dolphin.exe_Tue_Mar_22_01-00-09_2011_24.png",
   "bufferView": 8,
   "mimeType": "image/png"
  },
  {
   "name": "Dolphin.exe_Tue_Mar_22_01-00-09_2011_23.png",
   "bufferView": 9,
   "mimeType": "image/png"
  },
  {
   "name": "Dolphin.exe_Tue_Mar_22_01-00-09_2011_22.png",
   "bufferView": 10,
   "mimeType": "image/png"
  },
  {
   "name": "Dolphin.exe_Tue_Mar_22_01-00-09_2011_25.png",
   "bufferView": 11,
   "mimeType": "image/png"
  }
 ],
 "materials": [
  {
   "name": "RefRep.259Mat",
   "pbrMetallicRoughness": {
    "baseColorFactor": [
     0.8,
     0.8,
     0.8,
     1
    ],
    "baseColorTexture": {
     "index": 0,
     "texCoord": 0
    },
    "roughnessFactor": 0.3015,
    "metallicFactor": 0
   }
  },
  {
   "name": "RefRep.261Mat",
   "pbrMetallicRoughness": {
    "baseColorFactor": [
     0.8,
     0.8,
     0.8,
     1
    ],
    "baseColorTexture": {
     "index": 7,
     "texCoord": 0
    },
    "roughnessFactor": 0.3015,
    "metallicFactor": 0
   }
  },
  {
   "name": "RefRep.263Mat",
   "pbrMetallicRoughness": {
    "baseColorFactor": [
     0.8,
     0.8,
     0.8,
     1
    ],
    "baseColorTexture": {
     "index": 3,
     "texCoord": 0
    },
    "roughnessFactor": 0.3015,
    "metallicFactor": 0
   }
  },
  {
   "name": "RefRep.265Mat",
   "pbrMetallicRoughness": {
    "baseColorFactor": [
     0.8,
     0.8,
     0.8,
     1
    ],
    "baseColorTexture": {
     "index": 10,
     "texCoord": 0
    },
    "roughnessFactor": 0.3015,
    "metallicFactor": 0
   }
  },
  {
   "name": "RefRep.267Mat",
   "pbrMetallicRoughness": {
    "baseColorFactor": [
     0.8,
     0.8,
     0.8,
     1
    ],
    "baseColorTexture": {
     "index": 9,
     "texCoord": 0
    },
    "roughnessFactor": 0.3015,
    "metallicFactor": 0
   }
  },
  {
   "name": "RefRep.269Mat",
   "pbrMetallicRoughness": {
    "baseColorFactor": [
     0.8,
     0.8,
     0.8,
     1
    ],
    "baseColorTexture": {
     "index": 8,
     "texCoord": 0
    },
    "roughnessFactor": 0.3015,
    "metallicFactor": 0
   }
  },
  {
   "name": "RefRep.271Mat",
   "pbrMetallicRoughness": {
    "baseColorFactor": [
     0.8,
     0.8,
     0.8,
     1
    ],
    "baseColorTexture": {
     "index": 11,
     "texCoord": 0
    },
    "roughnessFactor": 0.3015,
    "metallicFactor": 0
   }
  },
  {
   "name": "RefRep.273Mat",
   "pbrMetallicRoughness": {
    "baseColorFactor": [
     0.8,
     0.8,
     0.8,
     1
    ],
    "baseColorTexture": {
     "index": 4,
     "texCoord": 0
    },
    "roughnessFactor": 0.3015,
    "metallicFactor": 0
   }
  },
  {
   "name": "RefRep.275Mat",
   "pbrMetallicRoughness": {
    "baseColorFactor": [
     0.8,
     0.8,
     0.8,
     1
    ],
    "baseColorTexture": {
     "index": 5,
     "texCoord": 0
    },
    "roughnessFactor": 0.3015,
    "metallicFactor": 0
   }
  },
  {
   "name": "RefRep.277Mat",
   "pbrMetallicRoughness": {
    "baseColorFactor": [
     0.8,
     0.8,
     0.8,
     1
    ],
    "baseColorTexture": {
     "index": 1,
     "texCoord": 0
    },
    "roughnessFactor": 0.3015,
    "metallicFactor": 0
   }
  },
  {
   "name": "RefRep.279Mat",
   "pbrMetallicRoughness": {
    "baseColorFactor": [
     0.8,
     0.8,
     0.8,
     1
    ],
    "baseColorTexture": {
     "index": 2,
     "texCoord": 0
    },
    "roughnessFactor": 0.3015,
    "metallicFactor": 0
   }
  },
  {
   "name": "RefRep.281Mat",
   "pbrMetallicRoughness": {
    "baseColorFactor": [
     0.8,
     0.8,
     0.8,
     1
    ],
    "baseColorTexture": {
     "index": 6,
     "texCoord": 0
    },
    "roughnessFactor": 0.3015,
    "metallicFactor": 0
   }
  }
 ],
 "meshes": [
  {
   "primitives": [
    {
     "indices": 3,
     "material": 9,
     "mode": 4,
     "attributes": {
      "POSITION": 0,
      "NORMAL": 1,
      "TEXCOORD_0": 2
     }
    }
   ]
  },
  {
   "primitives": [
    {
     "indices": 7,
     "material": 11,
     "mode": 4,
     "attributes": {
      "POSITION": 4,
      "NORMAL": 5,
      "TEXCOORD_0": 6
     }
    }
   ]
  },
  {
   "primitives": [
    {
     "indices": 11,
     "material": 2,
     "mode": 4,
     "attributes": {
      "POSITION": 8,
      "NORMAL": 9,
      "TEXCOORD_0": 10
     }
    }
   ]
  },
  {
   "primitives": [
    {
     "indices": 15,
     "material": 3,
     "mode": 4,
     "attributes": {
      "POSITION": 12,
      "NORMAL": 13,
      "TEXCOORD_0": 14
     }
    }
   ]
  },
  {
   "primitives": [
    {
     "indices": 19,
     "material": 6,
     "mode": 4,
     "attributes": {
      "POSITION": 16,
      "NORMAL": 17,
      "TEXCOORD_0": 18
     }
    }
   ]
  },
  {
   "primitives": [
    {
     "indices": 23,
     "material": 0,
     "mode": 4,
     "attributes": {
      "POSITION": 20,
      "NORMAL": 21,
      "TEXCOORD_0": 22
     }
    }
   ]
  },
  {
   "primitives": [
    {
     "indices": 27,
     "material": 7,
     "mode": 4,
     "attributes": {
      "POSITION": 24,
      "NORMAL": 25,
      "TEXCOORD_0": 26
     }
    }
   ]
  },
  {
   "primitives": [
    {
     "indices": 31,
     "material": 8,
     "mode": 4,
     "attributes": {
      "POSITION": 28,
      "NORMAL": 29,
      "TEXCOORD_0": 30
     }
    }
   ]
  },
  {
   "primitives": [
    {
     "indices": 35,
     "material": 10,
     "mode": 4,
     "attributes": {
      "POSITION": 32,
      "NORMAL": 33,
      "TEXCOORD_0": 34
     }
    }
   ]
  },
  {
   "primitives": [
    {
     "indices": 39,
     "material": 5,
     "mode": 4,
     "attributes": {
      "POSITION": 36,
      "NORMAL": 37,
      "TEXCOORD_0": 38
     }
    }
   ]
  },
  {
   "primitives": [
    {
     "indices": 43,
     "material": 1,
     "mode": 4,
     "attributes": {
      "POSITION": 40,
      "NORMAL": 41,
      "TEXCOORD_0": 42
     }
    }
   ]
  },
  {
   "primitives": [
    {
     "indices": 47,
     "material": 4,
     "mode": 4,
     "attributes": {
      "POSITION": 44,
      "NORMAL": 45,
      "TEXCOORD_0": 46
     }
    }
   ]
  }
 ],
 "nodes": [
  {
   "name": "Goku habit dechir__root",
   "rotation": [
    0.705653254565838,
    0.0453153329397209,
    0.0453153329397209,
    0.705653254565838
   ],
   "scale": [
    0.01000000002028125,
    0.009999999776482582,
    0.01000000002028125
   ],
   "children": [
    2,
    3,
    4,
    5,
    6,
    7,
    8,
    9,
    10,
    11,
    12,
    13
   ]
  },
  {
   "name": "LightPreset",
   "translation": [
    0,
    0.09648150205612183,
    0.0005233096890151501
   ]
  },
  {
   "name": "RefRep.277",
   "rotation": [
    0,
    -0.07443483772498694,
    0,
    0.9972258772439189
   ],
   "mesh": 0
  },
  {
   "name": "RefRep.281",
   "rotation": [
    0,
    -0.07443483772498694,
    0,
    0.9972258772439189
   ],
   "mesh": 1
  },
  {
   "name": "RefRep.263",
   "rotation": [
    0,
    -0.07443483772498694,
    0,
    0.9972258772439189
   ],
   "mesh": 2
  },
  {
   "name": "RefRep.265",
   "rotation": [
    0,
    -0.07443483772498694,
    0,
    0.9972258772439189
   ],
   "mesh": 3
  },
  {
   "name": "RefRep.271",
   "rotation": [
    0,
    -0.07443483772498694,
    0,
    0.9972258772439189
   ],
   "mesh": 4
  },
  {
   "name": "RefRep.259",
   "translation": [
    -1.8073999881744385,
    9.738200187683105,
    14.013899803161621
   ],
   "rotation": [
    -0.5506016010432044,
    -0.061959160216229055,
    -0.02971489590593729,
    0.8319350666096244
   ],
   "mesh": 5
  },
  {
   "name": "RefRep.273",
   "translation": [
    -2.35509991645813,
    12.387100219726562,
    13.930299758911133
   ],
   "rotation": [
    -0.6375814876084526,
    -0.05765921636896632,
    -0.047157645292138235,
    0.7667733844223532
   ],
   "scale": [
    1.003800085094542,
    1.0000000001089027,
    0.9788999943007695
   ],
   "mesh": 6
  },
  {
   "name": "RefRep.275",
   "rotation": [
    0,
    -0.07443483772498694,
    0,
    0.9972258772439189
   ],
   "mesh": 7
  },
  {
   "name": "RefRep.279",
   "translation": [
    -1.8073999881744385,
    9.738200187683105,
    14.013899803161621
   ],
   "rotation": [
    -0.5506016010432044,
    -0.061959160216229055,
    -0.02971489590593729,
    0.8319350666096244
   ],
   "mesh": 8
  },
  {
   "name": "RefRep.269",
   "rotation": [
    0,
    -0.07443483772498694,
    0,
    0.9972258772439189
   ],
   "mesh": 9
  },
  {
   "name": "RefRep.261",
   "rotation": [
    0,
    -0.07443483772498694,
    0,
    0.9972258772439189
   ],
   "mesh": 10
  },
  {
   "name": "RefRep.267",
   "rotation": [
    0,
    -0.07443483772498694,
    0,
    0.9972258772439189
   ],
   "mesh": 11
  }
 ],
 "samplers": [
  {
   "magFilter": 9729,
   "minFilter": 9987,
   "wrapS": 10497,
   "wrapT": 10497
  }
 ],
 "scene": 0,
 "scenes": [
  {
   "nodes": [
    0,
    1
   ]
  }
 ],
 "textures": [
  {
   "sampler": 0,
   "source": 0
  },
  {
   "sampler": 0,
   "source": 1
  },
  {
   "sampler": 0,
   "source": 2
  },
  {
   "sampler": 0,
   "source": 3
  },
  {
   "sampler": 0,
   "source": 4
  },
  {
   "sampler": 0,
   "source": 5
  },
  {
   "sampler": 0,
   "source": 6
  },
  {
   "sampler": 0,
   "source": 7
  },
  {
   "sampler": 0,
   "source": 8
  },
  {
   "sampler": 0,
   "source": 9
  },
  {
   "sampler": 0,
   "source": 10
  },
  {
   "sampler": 0,
   "source": 11
  }
 ]
}